<svg width="37" height="37" fill="none" xmlns="http://www.w3.org/2000/svg"><path fill-rule="evenodd" clip-rule="evenodd" d="M5.653 27.493a3.854 3.854 0 0 0 3.854 3.854h17.986a3.854 3.854 0 0 0 3.854-3.854V9.507a3.854 3.854 0 0 0-3.854-3.854H9.507a3.854 3.854 0 0 0-3.854 3.854v17.986Zm23.125 0c0 .71-.575 1.285-1.285 1.285H9.507c-.71 0-1.285-.575-1.285-1.285V9.507c0-.71.575-1.285 1.285-1.285h6.424v10.292h3.077l2.062-2.758 2.062 2.758h3.076V8.222h1.285c.71 0 1.285.575 1.285 1.285v17.986ZM18.5 8.223h5.139v6.854l-2.57-3.437-2.569 3.437V8.222Z" fill="#2D2D2D"/><mask id="a" style="mask-type:luminance" maskUnits="userSpaceOnUse" x="5" y="5" width="27" height="27"><path fill-rule="evenodd" clip-rule="evenodd" d="M5.653 27.493a3.854 3.854 0 0 0 3.854 3.854h17.986a3.854 3.854 0 0 0 3.854-3.854V9.507a3.854 3.854 0 0 0-3.854-3.854H9.507a3.854 3.854 0 0 0-3.854 3.854v17.986Zm23.125 0c0 .71-.575 1.285-1.285 1.285H9.507c-.71 0-1.285-.575-1.285-1.285V9.507c0-.71.575-1.285 1.285-1.285h6.424v10.292h3.077l2.062-2.758 2.062 2.758h3.076V8.222h1.285c.71 0 1.285.575 1.285 1.285v17.986ZM18.5 8.223h5.139v6.854l-2.57-3.437-2.569 3.437V8.222Z" fill="#fff"/></mask></svg>